HIERARCHY
ROOT RootJoint
{
    OFFSET   0.000000   0.000000   0.000000
    CHANNELS 6 Xposition Yposition Zposition Xrotation Yrotation Zrotation
    JOINT pelvis_lowerback
    {
        OFFSET   0.000000   0.093605   0.000000
        CHANNELS 3 Xrotation Yrotation Zrotation
        JOINT lowerback_torso
        {
            OFFSET   0.000000   0.100000   0.000000
            CHANNELS 3 Xrotation Yrotation Zrotation
            JOINT torso_head
            {
                OFFSET   0.000000   0.282350   0.000000
                CHANNELS 3 Xrotation Yrotation Zrotation
                End Site
                {
                    OFFSET   0.000000   0.192650   0.000000
                }
            }
            JOINT rTorso_Clavicle
            {
                OFFSET  -0.001000   0.157500   0.000000
                CHANNELS 3 Xrotation Yrotation Zrotation
                JOINT rShoulder
                {
                    OFFSET  -0.117647   0.000000   0.000000
                    CHANNELS 3 Xrotation Yrotation Zrotation
                    JOINT rElbow
                    {
                        OFFSET  -0.245000   0.000000   0.000000
                        CHANNELS 3 Xrotation Yrotation Zrotation
                        JOINT rWrist
                        {
                            OFFSET  -0.240000   0.000000   0.000000
                            CHANNELS 3 Xrotation Yrotation Zrotation
                            End Site
                            {
                                OFFSET  -0.116353  -0.002500   0.000000
                            }
                        }
                    }
                }
            }
            JOINT lTorso_Clavicle
            {
                OFFSET   0.001000   0.157500   0.000000
                CHANNELS 3 Xrotation Yrotation Zrotation
                JOINT lShoulder
                {
                    OFFSET   0.117647   0.000000   0.000000
                    CHANNELS 3 Xrotation Yrotation Zrotation
                    JOINT lElbow
                    {
                        OFFSET   0.245000   0.000000   0.000000
                        CHANNELS 3 Xrotation Yrotation Zrotation
                        JOINT lWrist
                        {
                            OFFSET   0.240000   0.000000   0.000000
                            CHANNELS 3 Xrotation Yrotation Zrotation
                            End Site
                            {
                                OFFSET   0.116353  -0.002500   0.000000
                            }
                        }
                    }
                }
            }
        }
    }
    JOINT rHip
    {
        OFFSET  -0.100000  -0.051395   0.000000
        CHANNELS 3 Xrotation Yrotation Zrotation
        JOINT rKnee
        {
            OFFSET   0.000000  -0.410000   0.000000
            CHANNELS 3 Xrotation Yrotation Zrotation
            JOINT rAnkle
            {
                OFFSET   0.000000  -0.390000   0.000000
                CHANNELS 3 Xrotation Yrotation Zrotation
                JOINT rToeJoint
                {
                    OFFSET   0.000000  -0.050000   0.130000
                    CHANNELS 3 Xrotation Yrotation Zrotation
                    End Site
                    {
                        OFFSET  -0.010000   0.002000   0.060000
                    }
                }
            }
        }
    }
    JOINT lHip
    {
        OFFSET   0.100000  -0.051395   0.000000
        CHANNELS 3 Xrotation Yrotation Zrotation
        JOINT lKnee
        {
            OFFSET   0.000000  -0.410000   0.000000
            CHANNELS 3 Xrotation Yrotation Zrotation
            JOINT lAnkle
            {
                OFFSET   0.000000  -0.390000   0.000000
                CHANNELS 3 Xrotation Yrotation Zrotation
                JOINT lToeJoint
                {
                    OFFSET   0.000000  -0.050000   0.130000
                    CHANNELS 3 Xrotation Yrotation Zrotation
                    End Site
                    {
                        OFFSET   0.010000   0.002000   0.060000
                    }
                }
            }
        }
    }
}
MOTION
Frames: 10
Frame Time:   0.008333
 -2.376719   0.925631   3.975860   0.000000   0.000000   0.000000   0.000000   0.000000   0.000000   0.000000   0.000000   0.000000   0.000000   0.000000   0.000000   0.000000   0.000000   0.000000   0.000000   0.000000   0.000000   0.000000   0.000000   0.000000   0.000000   0.000000   0.000000   0.000000   0.000000   0.000000   0.000000   0.000000   0.000000   0.000000   0.000000   0.000000   0.000000   0.000000   0.000000   0.000000   0.000000   0.000000   0.000000   0.000000   0.000000   0.000000   0.000000   0.000000   0.000000   0.000000   0.000000   0.000000   0.000000   0.000000   0.000000   0.000000   0.000000   0.000000   0.000000   0.000000   0.000000   0.000000   0.000000
 -2.376770   0.924883   3.974856  -0.407816   0.022901  -0.000588   0.787306   0.040268  -0.005531   0.349145  -0.037245  -0.015911  -0.039712   0.152489   0.015793   0.302422  -0.854973  -1.140354  -0.035152  -0.466727   1.900675   0.010874   1.683449  -0.014525  -0.190417   0.589243  -0.800918   0.466218   0.135190   0.704465  -0.597574   0.877804  -1.491041   0.007522  -1.066736   0.005466  -0.074510  -0.460115   1.004256  -0.512692   0.059748  -0.082961   2.085076   0.001555   0.001464   3.179824  -0.108957   0.317260   0.002400  -0.000005  -0.000001  -0.349846   0.127400   0.136940   2.457813  -0.002836   0.003304   3.396661   0.240794  -0.196488  -1.040860  -0.000463  -0.003681
 -2.376846   0.928931   3.972184  -0.852216   0.004060   0.022802   1.849288   0.065368  -0.027608   0.945794  -0.095897  -0.062591   0.004858   0.304738   0.033467   0.569428  -1.901040  -1.767161  -0.045359  -1.048428   3.953113   0.027953   3.243009  -0.030936  -0.344356   1.474761  -1.393328   0.901446   0.460859   0.865660  -1.130923   1.853841  -3.187539   0.019288  -2.027843   0.013400  -0.131959  -0.958583   1.804738  -1.142106   0.156505  -0.095069   3.623725   0.001214   0.002155   4.466036  -0.186355   0.276731  -4.037593  -0.001578   0.000305  -0.900927   0.089699   0.118755   3.862209  -0.002263   0.002046   4.646698   0.289906  -0.205459  -4.959380   0.000116  -0.003016
 -2.377060   0.934318   3.969131  -1.476629  -0.032741   0.026895   3.072565   0.058285  -0.050957   1.738782  -0.177974  -0.119530   0.125801   0.447206   0.051581   0.803475  -3.011436  -2.264930  -0.026249  -1.686807   5.988959   0.041237   4.663303  -0.043562  -0.479530   2.218393  -1.538012   1.306058   0.871052   0.899999  -1.595319   2.859751  -4.905729   0.028698  -2.892569   0.020154  -0.178526  -1.297069   2.113742  -1.747219   0.259785  -0.091526   5.424121   0.001079   0.002703   6.616113  -0.228975   0.440027  -9.300720   0.005352   0.000681  -1.536269   0.109380   0.123722   5.573422  -0.001861   0.001498   6.845903   0.394534  -0.285639 -10.121670  -0.001547  -0.007346
 -2.377426   0.939940   3.966303  -2.206601  -0.172038   0.009540   4.295111   0.055512  -0.084666   2.597785  -0.254430  -0.187981   0.290339   0.581066   0.068113   1.008108  -4.134551  -2.713897   0.019501  -2.347440   7.920061   0.049394   5.964182  -0.050631  -0.606332   2.803438  -1.477497   1.683689   1.337472   0.896792  -1.995620   3.875247  -6.545738   0.034849  -3.675472   0.024371  -0.221838  -1.494525   2.189248  -2.312732   0.378062  -0.050514   7.255924   0.000705   0.001805   8.944209  -0.224425   0.672680 -13.659954   0.012791   0.004297  -2.100591   0.125232   0.180088   7.465960  -0.002210  -0.000636   9.320236   0.464322  -0.437482 -15.540637  -0.003928  -0.005872
 -2.377902   0.945521   3.963826  -2.986930  -0.405954  -0.016304   5.455791   0.048742  -0.138224   3.440427  -0.327817  -0.275318   0.468159   0.706183   0.081329   1.185767  -5.247443  -3.136435   0.087659  -3.014402   9.724836   0.053215   7.159007  -0.052729  -0.729888   3.254624  -1.355798   2.036721   1.836094   0.877131  -2.338547   4.884467  -8.083790   0.038240  -4.387059   0.026216  -0.266216  -1.578331   2.182650  -2.841318   0.486397   0.018269   9.054406  -0.000071  -0.000457  11.228367  -0.200172   0.911488 -16.596838   0.016364   0.009138  -2.596867   0.137542   0.266783   9.314457  -0.003130  -0.003757  11.757008   0.509718  -0.602998 -19.502969  -0.004722  -0.001387
 -2.378444   0.950892   3.961750  -3.797302  -0.727465  -0.043153   6.529075   0.035326  -0.214442   4.233065  -0.401538  -0.385167   0.645238   0.822882   0.090810   1.339535  -6.338532  -3.551019   0.174515  -3.677985  11.397783   0.053669   8.258379  -0.051006  -0.851385   3.595826  -1.230569   2.367820   2.350439   0.855013  -2.630342   5.875214  -9.515814   0.039481  -5.036222   0.026219  -0.312322  -1.573994   2.149934  -3.327568   0.576192   0.101046  10.797751  -0.001190  -0.003709  13.445707  -0.167231   1.148571 -18.447023   0.017042   0.012863  -3.025679   0.159546   0.364069  11.106740  -0.004342  -0.007237  14.110910   0.543927  -0.776023 -22.220307  -0.004771   0.002771
 -2.379165   0.955880   3.959751  -4.036105  -1.310514  -0.659617   7.187308   0.175011   0.471306   4.419862  -0.386085  -0.518654   0.743445   0.636021  -0.056070   1.422150  -7.308015  -4.239758  -0.305393  -4.532245  12.511376   0.047248   9.331932  -0.038738  -0.930571   3.643059  -0.660736   2.467387   3.271299   1.212376  -3.282692   6.704573 -10.889558   0.037889  -5.819938   0.019499  -0.411876  -1.664082   1.576640  -4.850975   0.212518   0.781794  14.217765  -0.007384  -0.028707  11.526211  -0.582220   1.141439 -16.951608   0.014281  -0.006724  -3.245264   0.198129   1.105109  11.063168  -0.003401  -0.005607  17.396226   0.616702  -0.861742 -27.494178   0.001042   0.019061
 -2.379984   0.960747   3.957932  -4.146769  -1.723235  -1.371021   7.691362   0.247056   1.233201   4.441813  -0.399338  -0.548601   0.788274   0.445263  -0.180478   1.475112  -8.254939  -5.095749  -0.751510  -5.377745  13.378309   0.038342  10.317863  -0.027330  -1.033530   3.576460  -0.364917   2.546869   4.181613   1.746820  -3.882398   7.520353 -12.023005   0.032964  -6.549965   0.012790  -0.533391  -1.793993   1.152016  -6.349724  -0.206888   1.482575  17.750752  -0.012448  -0.044555   9.707812  -0.980878   1.119022 -15.770067   0.011982  -0.017056  -3.362060   0.221612   1.928220  10.814611  -0.002366  -0.003803  20.667790   0.714961  -0.940131 -32.991696   0.005014   0.024782
 -2.380805   0.965601   3.956074  -4.207409  -2.000446  -2.079563   8.119949   0.289216   1.990328   4.405061  -0.437470  -0.524375   0.807554   0.265927  -0.287697   1.507465  -9.170353  -6.031158  -1.162255  -6.197882  14.078597   0.029121  11.228073  -0.017939  -1.138250   3.452256  -0.300611   2.612185   5.044889   2.399740  -4.434652   8.299293 -12.959619   0.026659  -7.228400   0.007052  -0.654968  -1.910908   0.951446  -7.737518  -0.619145   2.090727  21.304302  -0.014901  -0.052362   8.012211  -1.353916   1.084304 -14.689843   0.010594  -0.022554  -3.491387   0.204685   2.772004  10.391720  -0.001262  -0.002249  23.909491   0.679883  -1.227405 -37.530666  -0.001333   0.023755
